M48
;Layer_Color=9474304
;FILE_FORMAT=2:5
INCH,TZ
;TYPE=PLATED
T1F00S00C0.01181
T2F00S00C0.03500
%
T01
X135961Y17221
X165488Y36906
X155646Y56591
X165488Y76276
X145803
X126118
X106433
X86748
X67063
X76906Y56591
X96591
X116276
X126118Y36906
X106433
X86748
X67063
X76906Y17221
X96591
X116276
X57221
X37535
Y56591
X57221
X17850
X27693Y76276
X37535Y95961
X57221
X67063Y115646
X60138Y125077
X57221Y135331
X37535
X17850
X27693Y155016
X47378
X67063
X86748
X106433
X126118
X116276Y174701
X96591
X106433Y194386
X126118
X116276Y214071
X96591
X93793Y203279
X90431
X87069
X83707
X86748Y194386
X67063
X47378
X27693
X37535Y214071
X57221
X76906
X67063Y233756
X47378
X106433
X126118
X116276Y135331
X96591
X83707Y125077
X86748Y115646
X106433
X126118
X116276Y95961
X96591
X47378Y115646
X27693
X17850Y95961
Y174701
X37535
X57221
X155646
X165488Y194386
X145803
X135961Y214071
X165488Y233756
Y155016
X145803
X155646Y135331
X165488Y115646
X145803
X155646Y95961
T02
X133683Y30669
Y40669
Y50669
Y60669
Y70669
Y80669
Y90669
X43683
Y80169
Y70669
Y60669
Y50669
Y40669
Y30669
Y100669
Y111169
Y120669
Y130669
Y140669
Y150669
Y160669
Y170669
X133683
Y160669
Y150669
Y141169
Y130669
Y120669
Y110169
Y100669
M30
