G04*
G04 #@! TF.GenerationSoftware,Altium Limited,Altium Designer,19.0.10 (269)*
G04*
G04 Layer_Physical_Order=2*
G04 Layer_Color=16711680*
%FSLAX25Y25*%
%MOIN*%
G70*
G01*
G75*
%ADD18C,0.01181*%
%ADD19C,0.06900*%
%ADD20R,0.06900X0.06900*%
%ADD21C,0.02362*%
G36*
X99430Y299212D02*
X99506Y298828D01*
X99724Y298503D01*
X100049Y298285D01*
X100433Y298209D01*
Y298203D01*
X101191Y298103D01*
X101897Y297811D01*
X102504Y297345D01*
X102969Y296739D01*
X103261Y296033D01*
X103361Y295275D01*
X103367D01*
X103443Y294891D01*
X103661Y294566D01*
X103986Y294348D01*
X104370Y294272D01*
Y270295D01*
X104370Y270295D01*
X103986Y270218D01*
X103661Y270001D01*
X103443Y269675D01*
X103367Y269291D01*
X103361D01*
X103261Y268534D01*
X102969Y267827D01*
X102503Y267221D01*
X101897Y266756D01*
X101191Y266463D01*
X100433Y266364D01*
Y266358D01*
X100049Y266282D01*
X99898Y266181D01*
X99549Y266103D01*
X99200Y266181D01*
X99049Y266282D01*
X98665Y266358D01*
Y266381D01*
X97381Y266212D01*
X96184Y265716D01*
X95156Y264927D01*
X94367Y263899D01*
X93871Y262702D01*
X93702Y261417D01*
X93725D01*
X93801Y261033D01*
X94019Y260708D01*
X94344Y260490D01*
X94728Y260414D01*
Y256594D01*
X94344Y256518D01*
X94018Y256300D01*
X93801Y255975D01*
X93725Y255591D01*
X93701D01*
X93871Y254306D01*
X94366Y253109D01*
X95155Y252081D01*
X96183Y251292D01*
X97380Y250796D01*
X98665Y250627D01*
Y250627D01*
X98686Y250648D01*
X99888Y250628D01*
X111429Y250061D01*
X122945Y249117D01*
X134424Y247797D01*
X145853Y246101D01*
X153130Y244777D01*
X153130Y244777D01*
X153130Y244777D01*
X153624Y244697D01*
X156582Y243845D01*
X159614Y242589D01*
X162486Y241002D01*
X165162Y239103D01*
X167609Y236916D01*
X169796Y234469D01*
X171695Y231793D01*
X173282Y228921D01*
X174538Y225889D01*
X175447Y222735D01*
X175996Y219500D01*
X176156Y216650D01*
X176156Y216650D01*
X176156D01*
X176162Y216645D01*
Y35136D01*
X176156Y35131D01*
X176156Y35131D01*
X176156Y35131D01*
X175996Y32280D01*
X175447Y29045D01*
X174538Y25892D01*
X173282Y22860D01*
X171695Y19988D01*
X169796Y17311D01*
X167609Y14864D01*
X165162Y12678D01*
X162486Y10779D01*
X159614Y9191D01*
X156582Y7936D01*
X153624Y7083D01*
X153130Y7004D01*
X153130Y7004D01*
X153130Y7004D01*
X145890Y5686D01*
X134502Y3997D01*
X123065Y2681D01*
X111592Y1740D01*
X100093Y1175D01*
X88583Y987D01*
X77072Y1175D01*
X65574Y1740D01*
X54100Y2681D01*
X42663Y3997D01*
X31275Y5686D01*
X24035Y7004D01*
X24035Y7004D01*
X24035Y7004D01*
X23541Y7083D01*
X20583Y7936D01*
X17552Y9191D01*
X14680Y10779D01*
X12003Y12678D01*
X9556Y14864D01*
X7369Y17311D01*
X5470Y19988D01*
X3883Y22860D01*
X2627Y25892D01*
X1719Y29045D01*
X1169Y32280D01*
X1009Y35131D01*
X1009Y35131D01*
X1009D01*
X1003Y35136D01*
Y216645D01*
X1009Y216650D01*
X1009Y216650D01*
X1009Y216650D01*
X1169Y219500D01*
X1719Y222735D01*
X2627Y225889D01*
X3883Y228921D01*
X5470Y231793D01*
X7369Y234469D01*
X9556Y236916D01*
X12003Y239103D01*
X14680Y241002D01*
X17552Y242589D01*
X20583Y243845D01*
X23541Y244697D01*
X24035Y244777D01*
X24035Y244777D01*
X24035Y244777D01*
X31312Y246101D01*
X42742Y247797D01*
X54220Y249117D01*
X65737Y250061D01*
X77277Y250628D01*
X78479Y250648D01*
X78500Y250627D01*
Y250627D01*
X79785Y250796D01*
X80982Y251292D01*
X82010Y252081D01*
X82799Y253109D01*
X83295Y254306D01*
X83464Y255591D01*
X83441D01*
X83364Y255975D01*
X83147Y256300D01*
X82821Y256518D01*
X82437Y256594D01*
Y260414D01*
X82821Y260490D01*
X83147Y260708D01*
X83364Y261033D01*
X83441Y261417D01*
X83464D01*
X83295Y262702D01*
X82799Y263899D01*
X82010Y264927D01*
X80982Y265716D01*
X79785Y266212D01*
X78500Y266381D01*
Y266358D01*
X78116Y266282D01*
X77965Y266181D01*
X77616Y266103D01*
X77267Y266181D01*
X77116Y266282D01*
X76732Y266358D01*
Y266364D01*
X75975Y266463D01*
X75268Y266756D01*
X74662Y267221D01*
X74197Y267827D01*
X73904Y268534D01*
X73804Y269291D01*
X73799D01*
X73722Y269675D01*
X73505Y270001D01*
X73179Y270218D01*
X72795Y270295D01*
X72795Y270295D01*
Y294272D01*
X73179Y294348D01*
X73505Y294566D01*
X73722Y294891D01*
X73798Y295275D01*
X73804D01*
X73904Y296033D01*
X74196Y296739D01*
X74662Y297345D01*
X75268Y297811D01*
X75974Y298103D01*
X76732Y298203D01*
Y298209D01*
X77116Y298285D01*
X77442Y298503D01*
X77659Y298828D01*
X77736Y299212D01*
X77736Y299213D01*
X99430D01*
X99430Y299212D01*
D02*
G37*
%LPC*%
G36*
X153543Y236166D02*
X151535Y236008D01*
X149577Y235538D01*
X147716Y234767D01*
X145999Y233715D01*
X144468Y232407D01*
X143160Y230875D01*
X142107Y229158D01*
X141337Y227297D01*
X140866Y225339D01*
X140708Y223331D01*
X140866Y221323D01*
X141337Y219365D01*
X142107Y217504D01*
X143160Y215787D01*
X144468Y214256D01*
X145999Y212948D01*
X147716Y211895D01*
X149577Y211125D01*
X151535Y210654D01*
X153543Y210496D01*
X155551Y210654D01*
X157510Y211125D01*
X159370Y211895D01*
X161087Y212948D01*
X162619Y214256D01*
X163927Y215787D01*
X164979Y217504D01*
X165750Y219365D01*
X166220Y221323D01*
X166378Y223331D01*
X166220Y225339D01*
X165750Y227297D01*
X164979Y229158D01*
X163927Y230875D01*
X162619Y232407D01*
X161087Y233715D01*
X159370Y234767D01*
X157510Y235538D01*
X155551Y236008D01*
X153543Y236166D01*
D02*
G37*
G36*
X23622Y236166D02*
X21614Y236008D01*
X19656Y235538D01*
X17795Y234767D01*
X16078Y233715D01*
X14546Y232407D01*
X13239Y230875D01*
X12186Y229158D01*
X11415Y227297D01*
X10945Y225339D01*
X10787Y223331D01*
X10945Y221323D01*
X11415Y219365D01*
X12186Y217504D01*
X13239Y215787D01*
X14546Y214256D01*
X16078Y212948D01*
X17795Y211895D01*
X19656Y211125D01*
X21614Y210654D01*
X23622Y210496D01*
X25630Y210654D01*
X27588Y211125D01*
X29449Y211895D01*
X31166Y212948D01*
X32698Y214256D01*
X34006Y215787D01*
X35058Y217504D01*
X35829Y219365D01*
X36299Y221323D01*
X36457Y223331D01*
X36299Y225339D01*
X35829Y227297D01*
X35058Y229158D01*
X34006Y230875D01*
X32698Y232407D01*
X31166Y233715D01*
X29449Y234767D01*
X27588Y235538D01*
X25630Y236008D01*
X23622Y236166D01*
D02*
G37*
G36*
X88260Y211755D02*
X77913D01*
X77376Y211648D01*
X76920Y211344D01*
X74699Y209123D01*
X74395Y208668D01*
X74288Y208130D01*
Y91496D01*
X74395Y90958D01*
X74699Y90503D01*
X81192Y84010D01*
X81647Y83706D01*
X82185Y83599D01*
X128766D01*
X128783Y83582D01*
X129376Y80726D01*
X129473Y80067D01*
X129497Y79999D01*
X129554Y79563D01*
X129981Y78532D01*
X130660Y77647D01*
X131546Y76968D01*
X132577Y76541D01*
X133683Y76395D01*
X134789Y76541D01*
X135820Y76968D01*
X136705Y77647D01*
X137384Y78532D01*
X137811Y79563D01*
X137957Y80669D01*
X137811Y81775D01*
X137384Y82806D01*
X136705Y83691D01*
X135820Y84371D01*
X134789Y84798D01*
X134360Y84854D01*
X134298Y84877D01*
X131974Y85257D01*
X131230Y85421D01*
X131025Y85478D01*
X130942Y85562D01*
X130857Y85738D01*
X131138Y86261D01*
X133048Y86407D01*
X133541Y86414D01*
X133683Y86395D01*
X134789Y86541D01*
X135820Y86968D01*
X136705Y87647D01*
X137384Y88532D01*
X137811Y89563D01*
X137957Y90669D01*
X137811Y91776D01*
X137384Y92806D01*
X136705Y93691D01*
X135820Y94371D01*
X134789Y94798D01*
X133683Y94943D01*
X132577Y94798D01*
X131546Y94371D01*
X130660Y93691D01*
X129981Y92806D01*
X129554Y91776D01*
X129536Y91639D01*
X129241Y90616D01*
X128807Y89269D01*
X128583Y88689D01*
X128536Y88590D01*
X83670D01*
X79279Y92981D01*
Y205564D01*
X80480Y206764D01*
X84068D01*
X85313Y205519D01*
X85270Y205158D01*
X84780Y204930D01*
X84475Y205134D01*
X83707Y205287D01*
X82939Y205134D01*
X82288Y204699D01*
X81852Y204048D01*
X81700Y203279D01*
X81852Y202512D01*
X82075Y202179D01*
X82107Y202107D01*
X82160Y202031D01*
X82195Y201975D01*
X82224Y201921D01*
X82249Y201868D01*
X82269Y201816D01*
X82284Y201765D01*
X82297Y201713D01*
X82302Y201683D01*
Y126673D01*
X82297Y126644D01*
X82284Y126592D01*
X82269Y126540D01*
X82249Y126488D01*
X82224Y126435D01*
X82195Y126381D01*
X82160Y126325D01*
X82107Y126250D01*
X82075Y126178D01*
X81852Y125845D01*
X81700Y125077D01*
X81852Y124309D01*
X82288Y123658D01*
X82939Y123222D01*
X83331Y123144D01*
X83405Y123116D01*
X83496Y123100D01*
X83560Y123086D01*
X83619Y123068D01*
X83674Y123048D01*
X83724Y123025D01*
X83772Y123000D01*
X83818Y122972D01*
X83842Y122955D01*
X87392Y119404D01*
X87848Y119100D01*
X88386Y118993D01*
X128245D01*
X130756Y117511D01*
X131302Y117145D01*
X131330Y117134D01*
X131546Y116968D01*
X132577Y116541D01*
X133683Y116395D01*
X134789Y116541D01*
X135820Y116968D01*
X136705Y117647D01*
X137384Y118532D01*
X137811Y119563D01*
X137957Y120669D01*
X137811Y121775D01*
X137384Y122806D01*
X136705Y123691D01*
X135820Y124371D01*
X134789Y124798D01*
X133683Y124943D01*
X132577Y124798D01*
X131546Y124371D01*
X131041Y123983D01*
X130977Y123951D01*
X129119Y122471D01*
X128496Y122030D01*
X128275Y121891D01*
X128119Y121806D01*
X128110Y121803D01*
X88968D01*
X85829Y124942D01*
X85812Y124966D01*
X85783Y125011D01*
X85758Y125059D01*
X85736Y125110D01*
X85715Y125164D01*
X85698Y125223D01*
X85683Y125287D01*
X85667Y125379D01*
X85639Y125452D01*
X85561Y125845D01*
X85339Y126177D01*
X85307Y126250D01*
X85253Y126325D01*
X85218Y126381D01*
X85189Y126435D01*
X85165Y126488D01*
X85145Y126540D01*
X85129Y126592D01*
X85117Y126644D01*
X85112Y126673D01*
Y201501D01*
X85537Y201863D01*
X85577Y201862D01*
X85617Y201856D01*
X85689Y201834D01*
X86301Y201425D01*
X87069Y201273D01*
X87837Y201425D01*
X88434Y201824D01*
X88616Y201878D01*
X88884D01*
X89065Y201824D01*
X89663Y201425D01*
X90431Y201273D01*
X91199Y201425D01*
X91850Y201860D01*
X92285Y202512D01*
X92438Y203279D01*
X92285Y204048D01*
X92063Y204380D01*
X92031Y204452D01*
X91977Y204528D01*
X91943Y204584D01*
X91913Y204638D01*
X91889Y204691D01*
X91869Y204743D01*
X91853Y204794D01*
X91841Y204846D01*
X91836Y204876D01*
Y208179D01*
X91729Y208717D01*
X91425Y209173D01*
X89253Y211344D01*
X88797Y211648D01*
X88260Y211755D01*
D02*
G37*
G36*
X147638Y190879D02*
X146480Y190765D01*
X145367Y190428D01*
X144341Y189879D01*
X143442Y189141D01*
X142704Y188242D01*
X142155Y187216D01*
X141818Y186103D01*
X141704Y184945D01*
X141818Y183788D01*
X142155Y182675D01*
X142704Y181649D01*
X143442Y180749D01*
X144341Y180011D01*
X145367Y179463D01*
X146480Y179125D01*
X147638Y179011D01*
X148795Y179125D01*
X149909Y179463D01*
X150935Y180011D01*
X151834Y180749D01*
X152572Y181649D01*
X153120Y182675D01*
X153458Y183788D01*
X153572Y184945D01*
X153458Y186103D01*
X153120Y187216D01*
X152572Y188242D01*
X151834Y189141D01*
X150935Y189879D01*
X149909Y190428D01*
X148795Y190765D01*
X147638Y190879D01*
D02*
G37*
G36*
X133683Y174943D02*
X132577Y174798D01*
X131546Y174371D01*
X130660Y173691D01*
X129981Y172806D01*
X129554Y171775D01*
X129409Y170669D01*
X129554Y169563D01*
X129981Y168532D01*
X130660Y167647D01*
X131546Y166968D01*
X132577Y166541D01*
X133683Y166395D01*
X134789Y166541D01*
X135820Y166968D01*
X136705Y167647D01*
X137384Y168532D01*
X137811Y169563D01*
X137957Y170669D01*
X137811Y171775D01*
X137384Y172806D01*
X136705Y173691D01*
X135820Y174371D01*
X134789Y174798D01*
X133683Y174943D01*
D02*
G37*
G36*
X43683D02*
X42577Y174798D01*
X41546Y174371D01*
X40661Y173691D01*
X39981Y172806D01*
X39554Y171775D01*
X39409Y170669D01*
X39554Y169563D01*
X39981Y168532D01*
X40661Y167647D01*
X41546Y166968D01*
X42577Y166541D01*
X43683Y166395D01*
X44789Y166541D01*
X45820Y166968D01*
X46705Y167647D01*
X47384Y168532D01*
X47811Y169563D01*
X47957Y170669D01*
X47811Y171775D01*
X47384Y172806D01*
X46705Y173691D01*
X45820Y174371D01*
X44789Y174798D01*
X43683Y174943D01*
D02*
G37*
G36*
X133683Y164943D02*
X132577Y164798D01*
X131546Y164371D01*
X130660Y163691D01*
X129981Y162806D01*
X129554Y161776D01*
X129409Y160669D01*
X129554Y159563D01*
X129981Y158532D01*
X130660Y157647D01*
X131546Y156968D01*
X132577Y156541D01*
X133683Y156395D01*
X134789Y156541D01*
X135820Y156968D01*
X136705Y157647D01*
X137384Y158532D01*
X137811Y159563D01*
X137957Y160669D01*
X137811Y161776D01*
X137384Y162806D01*
X136705Y163691D01*
X135820Y164371D01*
X134789Y164798D01*
X133683Y164943D01*
D02*
G37*
G36*
X43683D02*
X42577Y164798D01*
X41546Y164371D01*
X40661Y163691D01*
X39981Y162806D01*
X39554Y161776D01*
X39409Y160669D01*
X39554Y159563D01*
X39981Y158532D01*
X40661Y157647D01*
X41546Y156968D01*
X42577Y156541D01*
X43683Y156395D01*
X44789Y156541D01*
X45820Y156968D01*
X46705Y157647D01*
X47384Y158532D01*
X47811Y159563D01*
X47957Y160669D01*
X47811Y161776D01*
X47384Y162806D01*
X46705Y163691D01*
X45820Y164371D01*
X44789Y164798D01*
X43683Y164943D01*
D02*
G37*
G36*
X133683Y154943D02*
X132577Y154798D01*
X131546Y154371D01*
X130660Y153691D01*
X129981Y152806D01*
X129554Y151776D01*
X129409Y150669D01*
X129554Y149563D01*
X129981Y148532D01*
X130660Y147647D01*
X131546Y146968D01*
X132577Y146541D01*
X133683Y146395D01*
X134789Y146541D01*
X135820Y146968D01*
X136705Y147647D01*
X137384Y148532D01*
X137811Y149563D01*
X137957Y150669D01*
X137811Y151776D01*
X137384Y152806D01*
X136705Y153691D01*
X135820Y154371D01*
X134789Y154798D01*
X133683Y154943D01*
D02*
G37*
G36*
X43683D02*
X42577Y154798D01*
X41546Y154371D01*
X40661Y153691D01*
X39981Y152806D01*
X39554Y151776D01*
X39409Y150669D01*
X39554Y149563D01*
X39981Y148532D01*
X40661Y147647D01*
X41546Y146968D01*
X42577Y146541D01*
X43683Y146395D01*
X44789Y146541D01*
X45820Y146968D01*
X46705Y147647D01*
X47384Y148532D01*
X47811Y149563D01*
X47957Y150669D01*
X47811Y151776D01*
X47384Y152806D01*
X46705Y153691D01*
X45820Y154371D01*
X44789Y154798D01*
X43683Y154943D01*
D02*
G37*
G36*
X133683Y145443D02*
X132577Y145298D01*
X131546Y144871D01*
X130660Y144191D01*
X129981Y143306D01*
X129554Y142276D01*
X129409Y141169D01*
X129554Y140063D01*
X129981Y139032D01*
X130660Y138147D01*
X131546Y137468D01*
X132577Y137041D01*
X133683Y136895D01*
X134789Y137041D01*
X135820Y137468D01*
X136705Y138147D01*
X137384Y139032D01*
X137811Y140063D01*
X137957Y141169D01*
X137811Y142276D01*
X137384Y143306D01*
X136705Y144191D01*
X135820Y144871D01*
X134789Y145298D01*
X133683Y145443D01*
D02*
G37*
G36*
X43683Y144943D02*
X42577Y144798D01*
X41546Y144371D01*
X40661Y143691D01*
X39981Y142806D01*
X39554Y141776D01*
X39409Y140669D01*
X39554Y139563D01*
X39981Y138532D01*
X40661Y137647D01*
X41546Y136968D01*
X42577Y136541D01*
X43683Y136395D01*
X44789Y136541D01*
X45820Y136968D01*
X46705Y137647D01*
X47384Y138532D01*
X47811Y139563D01*
X47957Y140669D01*
X47811Y141776D01*
X47384Y142806D01*
X46705Y143691D01*
X45820Y144371D01*
X44789Y144798D01*
X43683Y144943D01*
D02*
G37*
G36*
X133683Y134943D02*
X132577Y134798D01*
X131546Y134371D01*
X130660Y133691D01*
X129981Y132806D01*
X129554Y131775D01*
X129409Y130669D01*
X129554Y129563D01*
X129981Y128532D01*
X130660Y127647D01*
X131546Y126968D01*
X132577Y126541D01*
X133683Y126395D01*
X134789Y126541D01*
X135820Y126968D01*
X136705Y127647D01*
X137384Y128532D01*
X137811Y129563D01*
X137957Y130669D01*
X137811Y131775D01*
X137384Y132806D01*
X136705Y133691D01*
X135820Y134371D01*
X134789Y134798D01*
X133683Y134943D01*
D02*
G37*
G36*
X43683D02*
X42577Y134798D01*
X41546Y134371D01*
X40661Y133691D01*
X39981Y132806D01*
X39554Y131775D01*
X39409Y130669D01*
X39554Y129563D01*
X39981Y128532D01*
X40661Y127647D01*
X41546Y126968D01*
X42577Y126541D01*
X43683Y126395D01*
X44789Y126541D01*
X45820Y126968D01*
X46705Y127647D01*
X47384Y128532D01*
X47811Y129563D01*
X47957Y130669D01*
X47811Y131775D01*
X47384Y132806D01*
X46705Y133691D01*
X45820Y134371D01*
X44789Y134798D01*
X43683Y134943D01*
D02*
G37*
G36*
Y124943D02*
X42577Y124798D01*
X41546Y124371D01*
X40661Y123691D01*
X39981Y122806D01*
X39554Y121775D01*
X39409Y120669D01*
X39554Y119563D01*
X39981Y118532D01*
X40661Y117647D01*
X41546Y116968D01*
X42577Y116541D01*
X43683Y116395D01*
X44789Y116541D01*
X45820Y116968D01*
X46705Y117647D01*
X47384Y118532D01*
X47811Y119563D01*
X47957Y120669D01*
X47811Y121775D01*
X47384Y122806D01*
X46705Y123691D01*
X45820Y124371D01*
X44789Y124798D01*
X43683Y124943D01*
D02*
G37*
G36*
X138314Y114800D02*
X134273D01*
Y110760D01*
X138314D01*
Y114800D01*
D02*
G37*
G36*
X133092D02*
X129052D01*
Y110760D01*
X133092D01*
Y114800D01*
D02*
G37*
G36*
X43683Y115443D02*
X42577Y115298D01*
X41546Y114871D01*
X40661Y114191D01*
X39981Y113306D01*
X39554Y112276D01*
X39409Y111169D01*
X39554Y110063D01*
X39981Y109032D01*
X40661Y108147D01*
X41546Y107468D01*
X42577Y107041D01*
X43683Y106895D01*
X44789Y107041D01*
X45820Y107468D01*
X46705Y108147D01*
X47384Y109032D01*
X47811Y110063D01*
X47957Y111169D01*
X47811Y112276D01*
X47384Y113306D01*
X46705Y114191D01*
X45820Y114871D01*
X44789Y115298D01*
X43683Y115443D01*
D02*
G37*
G36*
X138314Y109579D02*
X134273D01*
Y105538D01*
X138314D01*
Y109579D01*
D02*
G37*
G36*
X133092D02*
X129052D01*
Y105538D01*
X133092D01*
Y109579D01*
D02*
G37*
G36*
X133683Y104943D02*
X132577Y104798D01*
X131546Y104371D01*
X130660Y103691D01*
X129981Y102806D01*
X129554Y101776D01*
X129409Y100669D01*
X129554Y99563D01*
X129981Y98532D01*
X130660Y97647D01*
X131546Y96968D01*
X132577Y96541D01*
X133683Y96395D01*
X134789Y96541D01*
X135820Y96968D01*
X136705Y97647D01*
X137384Y98532D01*
X137811Y99563D01*
X137957Y100669D01*
X137811Y101776D01*
X137384Y102806D01*
X136705Y103691D01*
X135820Y104371D01*
X134789Y104798D01*
X133683Y104943D01*
D02*
G37*
G36*
X43683D02*
X42577Y104798D01*
X41546Y104371D01*
X40661Y103691D01*
X39981Y102806D01*
X39554Y101776D01*
X39409Y100669D01*
X39554Y99563D01*
X39981Y98532D01*
X40661Y97647D01*
X41546Y96968D01*
X42577Y96541D01*
X43683Y96395D01*
X44789Y96541D01*
X45820Y96968D01*
X46705Y97647D01*
X47384Y98532D01*
X47811Y99563D01*
X47957Y100669D01*
X47811Y101776D01*
X47384Y102806D01*
X46705Y103691D01*
X45820Y104371D01*
X44789Y104798D01*
X43683Y104943D01*
D02*
G37*
G36*
Y94943D02*
X42577Y94798D01*
X41546Y94371D01*
X40661Y93691D01*
X39981Y92806D01*
X39554Y91776D01*
X39409Y90669D01*
X39554Y89563D01*
X39981Y88532D01*
X40661Y87647D01*
X41546Y86968D01*
X42577Y86541D01*
X43683Y86395D01*
X44789Y86541D01*
X45820Y86968D01*
X46705Y87647D01*
X47384Y88532D01*
X47811Y89563D01*
X47957Y90669D01*
X47811Y91776D01*
X47384Y92806D01*
X46705Y93691D01*
X45820Y94371D01*
X44789Y94798D01*
X43683Y94943D01*
D02*
G37*
G36*
X48314Y84800D02*
X44273D01*
Y80760D01*
X48314D01*
Y84800D01*
D02*
G37*
G36*
X43092D02*
X39052D01*
Y80760D01*
X43092D01*
Y84800D01*
D02*
G37*
G36*
X48314Y79579D02*
X44273D01*
Y75538D01*
X48314D01*
Y79579D01*
D02*
G37*
G36*
X43092D02*
X39052D01*
Y75538D01*
X43092D01*
Y79579D01*
D02*
G37*
G36*
X60138Y127084D02*
X59370Y126931D01*
X58719Y126496D01*
X58284Y125845D01*
X58131Y125077D01*
X58284Y124309D01*
X58531Y123938D01*
X58563Y123870D01*
X58621Y123792D01*
X58659Y123734D01*
X58691Y123678D01*
X58717Y123624D01*
X58738Y123573D01*
X58755Y123523D01*
X58767Y123473D01*
X58772Y123447D01*
Y73991D01*
X56855Y72074D01*
X49207D01*
X46768Y73674D01*
X46234Y74072D01*
X46168Y74103D01*
X45820Y74371D01*
X44789Y74798D01*
X43683Y74943D01*
X42577Y74798D01*
X41546Y74371D01*
X40661Y73691D01*
X39981Y72806D01*
X39554Y71776D01*
X39409Y70669D01*
X39554Y69563D01*
X39981Y68532D01*
X40661Y67647D01*
X41546Y66968D01*
X42577Y66541D01*
X43683Y66395D01*
X44789Y66541D01*
X45820Y66968D01*
X46163Y67232D01*
X46223Y67259D01*
X48134Y68633D01*
X48777Y69043D01*
X49006Y69173D01*
X49171Y69254D01*
X49199Y69264D01*
X56855D01*
X58894Y67225D01*
Y33559D01*
X59001Y33021D01*
X59306Y32566D01*
X62195Y29676D01*
X62651Y29371D01*
X63189Y29264D01*
X128158D01*
X130597Y27664D01*
X131132Y27266D01*
X131197Y27235D01*
X131546Y26968D01*
X132577Y26541D01*
X133683Y26395D01*
X134789Y26541D01*
X135820Y26968D01*
X136705Y27647D01*
X137384Y28532D01*
X137811Y29563D01*
X137957Y30669D01*
X137811Y31776D01*
X137384Y32806D01*
X136705Y33691D01*
X135820Y34371D01*
X134789Y34798D01*
X133683Y34943D01*
X132577Y34798D01*
X131546Y34371D01*
X131202Y34107D01*
X131142Y34080D01*
X129231Y32705D01*
X128588Y32295D01*
X128359Y32165D01*
X128194Y32085D01*
X128167Y32074D01*
X63771D01*
X61704Y34141D01*
Y67807D01*
X61597Y68345D01*
X61293Y68800D01*
X59424Y70669D01*
X61171Y72416D01*
X61475Y72872D01*
X61582Y73409D01*
Y123517D01*
X61587Y123549D01*
X61599Y123604D01*
X61614Y123657D01*
X61633Y123709D01*
X61656Y123761D01*
X61682Y123813D01*
X61713Y123865D01*
X61762Y123938D01*
X61792Y124009D01*
X61992Y124309D01*
X62145Y125077D01*
X61992Y125845D01*
X61557Y126496D01*
X60906Y126931D01*
X60138Y127084D01*
D02*
G37*
G36*
X133683Y74943D02*
X132577Y74798D01*
X131546Y74371D01*
X130660Y73691D01*
X129981Y72806D01*
X129554Y71776D01*
X129409Y70669D01*
X129554Y69563D01*
X129981Y68532D01*
X130660Y67647D01*
X131546Y66968D01*
X132577Y66541D01*
X133683Y66395D01*
X134789Y66541D01*
X135820Y66968D01*
X136705Y67647D01*
X137384Y68532D01*
X137811Y69563D01*
X137957Y70669D01*
X137811Y71776D01*
X137384Y72806D01*
X136705Y73691D01*
X135820Y74371D01*
X134789Y74798D01*
X133683Y74943D01*
D02*
G37*
G36*
X29528Y72769D02*
X28370Y72655D01*
X27257Y72317D01*
X26231Y71769D01*
X25332Y71031D01*
X24593Y70132D01*
X24045Y69106D01*
X23708Y67993D01*
X23594Y66835D01*
X23708Y65677D01*
X24045Y64564D01*
X24593Y63538D01*
X25332Y62639D01*
X26231Y61901D01*
X27257Y61353D01*
X28370Y61015D01*
X29528Y60901D01*
X30685Y61015D01*
X31798Y61353D01*
X32824Y61901D01*
X33724Y62639D01*
X34462Y63538D01*
X35010Y64564D01*
X35348Y65677D01*
X35462Y66835D01*
X35348Y67993D01*
X35010Y69106D01*
X34462Y70132D01*
X33724Y71031D01*
X32824Y71769D01*
X31798Y72317D01*
X30685Y72655D01*
X29528Y72769D01*
D02*
G37*
G36*
X133683Y64943D02*
X132577Y64798D01*
X131546Y64371D01*
X130660Y63691D01*
X129981Y62806D01*
X129554Y61775D01*
X129409Y60669D01*
X129554Y59563D01*
X129981Y58532D01*
X130660Y57647D01*
X131546Y56968D01*
X132577Y56541D01*
X133683Y56395D01*
X134789Y56541D01*
X135820Y56968D01*
X136705Y57647D01*
X137384Y58532D01*
X137811Y59563D01*
X137957Y60669D01*
X137811Y61775D01*
X137384Y62806D01*
X136705Y63691D01*
X135820Y64371D01*
X134789Y64798D01*
X133683Y64943D01*
D02*
G37*
G36*
X43683D02*
X42577Y64798D01*
X41546Y64371D01*
X40661Y63691D01*
X39981Y62806D01*
X39554Y61775D01*
X39409Y60669D01*
X39554Y59563D01*
X39981Y58532D01*
X40661Y57647D01*
X41546Y56968D01*
X42577Y56541D01*
X43683Y56395D01*
X44789Y56541D01*
X45820Y56968D01*
X46705Y57647D01*
X47384Y58532D01*
X47811Y59563D01*
X47957Y60669D01*
X47811Y61775D01*
X47384Y62806D01*
X46705Y63691D01*
X45820Y64371D01*
X44789Y64798D01*
X43683Y64943D01*
D02*
G37*
G36*
X133683Y54943D02*
X132577Y54798D01*
X131546Y54371D01*
X130660Y53691D01*
X129981Y52806D01*
X129554Y51775D01*
X129409Y50669D01*
X129554Y49563D01*
X129981Y48532D01*
X130660Y47647D01*
X131546Y46968D01*
X132577Y46541D01*
X133683Y46395D01*
X134789Y46541D01*
X135820Y46968D01*
X136705Y47647D01*
X137384Y48532D01*
X137811Y49563D01*
X137957Y50669D01*
X137811Y51775D01*
X137384Y52806D01*
X136705Y53691D01*
X135820Y54371D01*
X134789Y54798D01*
X133683Y54943D01*
D02*
G37*
G36*
X43683D02*
X42577Y54798D01*
X41546Y54371D01*
X40661Y53691D01*
X39981Y52806D01*
X39554Y51775D01*
X39409Y50669D01*
X39554Y49563D01*
X39981Y48532D01*
X40661Y47647D01*
X41546Y46968D01*
X42577Y46541D01*
X43683Y46395D01*
X44789Y46541D01*
X45820Y46968D01*
X46705Y47647D01*
X47384Y48532D01*
X47811Y49563D01*
X47957Y50669D01*
X47811Y51775D01*
X47384Y52806D01*
X46705Y53691D01*
X45820Y54371D01*
X44789Y54798D01*
X43683Y54943D01*
D02*
G37*
G36*
X138314Y45300D02*
X134273D01*
Y41260D01*
X138314D01*
Y45300D01*
D02*
G37*
G36*
X48314D02*
X44273D01*
Y41260D01*
X48314D01*
Y45300D01*
D02*
G37*
G36*
X133092D02*
X129052D01*
Y41260D01*
X133092D01*
Y45300D01*
D02*
G37*
G36*
X43092D02*
X39052D01*
Y41260D01*
X43092D01*
Y45300D01*
D02*
G37*
G36*
X138314Y40079D02*
X134273D01*
Y36038D01*
X138314D01*
Y40079D01*
D02*
G37*
G36*
X133092D02*
X129052D01*
Y36038D01*
X133092D01*
Y40079D01*
D02*
G37*
G36*
X48314D02*
X44273D01*
Y36038D01*
X48314D01*
Y40079D01*
D02*
G37*
G36*
X43092D02*
X39052D01*
Y36038D01*
X43092D01*
Y40079D01*
D02*
G37*
G36*
X43683Y34943D02*
X42577Y34798D01*
X41546Y34371D01*
X40661Y33691D01*
X39981Y32806D01*
X39554Y31776D01*
X39409Y30669D01*
X39554Y29563D01*
X39981Y28532D01*
X40661Y27647D01*
X41546Y26968D01*
X42577Y26541D01*
X43683Y26395D01*
X44789Y26541D01*
X45820Y26968D01*
X46705Y27647D01*
X47384Y28532D01*
X47811Y29563D01*
X47957Y30669D01*
X47811Y31776D01*
X47384Y32806D01*
X46705Y33691D01*
X45820Y34371D01*
X44789Y34798D01*
X43683Y34943D01*
D02*
G37*
G36*
X153543Y41284D02*
X151535Y41126D01*
X149577Y40656D01*
X147716Y39885D01*
X145999Y38833D01*
X144468Y37525D01*
X143160Y35993D01*
X142107Y34276D01*
X141337Y32416D01*
X140866Y30457D01*
X140708Y28449D01*
X140866Y26441D01*
X141337Y24483D01*
X142107Y22623D01*
X143160Y20905D01*
X144468Y19374D01*
X145999Y18066D01*
X147716Y17013D01*
X149577Y16243D01*
X151535Y15773D01*
X153543Y15615D01*
X155551Y15773D01*
X157510Y16243D01*
X159370Y17013D01*
X161087Y18066D01*
X162619Y19374D01*
X163927Y20905D01*
X164979Y22623D01*
X165750Y24483D01*
X166220Y26441D01*
X166378Y28449D01*
X166220Y30457D01*
X165750Y32416D01*
X164979Y34276D01*
X163927Y35993D01*
X162619Y37525D01*
X161087Y38833D01*
X159370Y39885D01*
X157510Y40656D01*
X155551Y41126D01*
X153543Y41284D01*
D02*
G37*
G36*
X23622D02*
X21614Y41126D01*
X19656Y40656D01*
X17795Y39885D01*
X16078Y38833D01*
X14546Y37525D01*
X13239Y35993D01*
X12186Y34276D01*
X11415Y32416D01*
X10945Y30457D01*
X10787Y28449D01*
X10945Y26441D01*
X11415Y24483D01*
X12186Y22623D01*
X13239Y20905D01*
X14546Y19374D01*
X16078Y18066D01*
X17795Y17013D01*
X19656Y16243D01*
X21614Y15773D01*
X23622Y15615D01*
X25630Y15773D01*
X27588Y16243D01*
X29449Y17013D01*
X31166Y18066D01*
X32698Y19374D01*
X34006Y20905D01*
X35058Y22623D01*
X35829Y24483D01*
X36299Y26441D01*
X36457Y28449D01*
X36299Y30457D01*
X35829Y32416D01*
X35058Y34276D01*
X34006Y35993D01*
X32698Y37525D01*
X31166Y38833D01*
X29449Y39885D01*
X27588Y40656D01*
X25630Y41126D01*
X23622Y41284D01*
D02*
G37*
%LPD*%
G36*
X91025Y204902D02*
X91036Y204794D01*
X91053Y204688D01*
X91078Y204583D01*
X91110Y204480D01*
X91149Y204379D01*
X91195Y204279D01*
X91248Y204181D01*
X91308Y204084D01*
X91375Y203989D01*
X89487D01*
X89554Y204084D01*
X89614Y204181D01*
X89667Y204279D01*
X89713Y204379D01*
X89752Y204480D01*
X89784Y204583D01*
X89809Y204688D01*
X89826Y204794D01*
X89837Y204902D01*
X89841Y205011D01*
X91022D01*
X91025Y204902D01*
D02*
G37*
G36*
X87438Y205010D02*
X87453Y204909D01*
X87477Y204808D01*
X87511Y204706D01*
X87555Y204605D01*
X87609Y204503D01*
X87673Y204402D01*
X87746Y204300D01*
X87828Y204199D01*
X87921Y204097D01*
X86046Y203870D01*
X86085Y203944D01*
X86120Y204023D01*
X86151Y204108D01*
X86178Y204197D01*
X86201Y204292D01*
X86234Y204496D01*
X86244Y204606D01*
X86252Y204842D01*
X87433Y205112D01*
X87438Y205010D01*
D02*
G37*
G36*
X84584Y202475D02*
X84524Y202379D01*
X84471Y202280D01*
X84425Y202181D01*
X84386Y202079D01*
X84354Y201976D01*
X84329Y201871D01*
X84311Y201765D01*
X84301Y201657D01*
X84297Y201548D01*
X83116D01*
X83113Y201657D01*
X83102Y201765D01*
X83084Y201871D01*
X83060Y201976D01*
X83028Y202079D01*
X82989Y202181D01*
X82943Y202280D01*
X82890Y202379D01*
X82829Y202475D01*
X82762Y202570D01*
X84651D01*
X84584Y202475D01*
D02*
G37*
G36*
X84301Y126699D02*
X84311Y126591D01*
X84329Y126485D01*
X84354Y126380D01*
X84386Y126277D01*
X84425Y126176D01*
X84471Y126076D01*
X84524Y125978D01*
X84584Y125881D01*
X84651Y125786D01*
X82762D01*
X82829Y125881D01*
X82890Y125978D01*
X82943Y126076D01*
X82989Y126176D01*
X83028Y126277D01*
X83060Y126380D01*
X83084Y126485D01*
X83102Y126591D01*
X83113Y126699D01*
X83116Y126808D01*
X84297D01*
X84301Y126699D01*
D02*
G37*
G36*
X84896Y125128D02*
X84921Y125017D01*
X84953Y124910D01*
X84992Y124807D01*
X85036Y124708D01*
X85086Y124613D01*
X85142Y124521D01*
X85205Y124434D01*
X85274Y124350D01*
X85349Y124270D01*
X84513Y123435D01*
X84434Y123510D01*
X84350Y123578D01*
X84262Y123641D01*
X84171Y123697D01*
X84075Y123748D01*
X83976Y123792D01*
X83873Y123830D01*
X83766Y123862D01*
X83655Y123888D01*
X83540Y123907D01*
X84876Y125243D01*
X84896Y125128D01*
D02*
G37*
G36*
X131749Y117812D02*
X131184Y118191D01*
X128580Y119727D01*
X128402Y119787D01*
X128272Y119807D01*
X128177Y120988D01*
X128299Y121011D01*
X128467Y121082D01*
X128681Y121198D01*
X128941Y121362D01*
X129601Y121829D01*
X131477Y123323D01*
X131749Y117812D01*
D02*
G37*
G36*
X133718Y87220D02*
X133011Y87209D01*
X129956Y86976D01*
X129790Y86919D01*
X129692Y86857D01*
X129037Y87873D01*
X129121Y87981D01*
X129216Y88148D01*
X129321Y88374D01*
X129564Y89001D01*
X130009Y90382D01*
X130360Y91597D01*
X133718Y87220D01*
D02*
G37*
G36*
X130337Y84881D02*
X130506Y84804D01*
X130739Y84724D01*
X131036Y84642D01*
X131823Y84468D01*
X134169Y84085D01*
X130267Y80184D01*
X130167Y80866D01*
X129548Y83846D01*
X129472Y84015D01*
X129398Y84119D01*
X130233Y84954D01*
X130337Y84881D01*
D02*
G37*
G36*
X61034Y124295D02*
X60978Y124200D01*
X60929Y124103D01*
X60886Y124005D01*
X60850Y123904D01*
X60820Y123801D01*
X60797Y123696D01*
X60781Y123589D01*
X60771Y123480D01*
X60768Y123369D01*
X59587Y123324D01*
X59583Y123431D01*
X59571Y123538D01*
X59553Y123643D01*
X59526Y123748D01*
X59492Y123851D01*
X59450Y123952D01*
X59401Y124053D01*
X59345Y124153D01*
X59280Y124251D01*
X59208Y124348D01*
X61097Y124387D01*
X61034Y124295D01*
D02*
G37*
G36*
X46308Y73016D02*
X48853Y71347D01*
X49026Y71281D01*
X49152Y71260D01*
Y70079D01*
X49026Y70057D01*
X48853Y69992D01*
X48632Y69884D01*
X48363Y69732D01*
X47684Y69298D01*
X45754Y67911D01*
Y73428D01*
X46308Y73016D01*
D02*
G37*
G36*
X131611Y27911D02*
X131057Y28322D01*
X128513Y29992D01*
X128339Y30057D01*
X128214Y30079D01*
Y31260D01*
X128339Y31282D01*
X128513Y31347D01*
X128734Y31455D01*
X129002Y31607D01*
X129682Y32040D01*
X131611Y33428D01*
Y27911D01*
D02*
G37*
D18*
X63189Y30669D02*
X133683D01*
X60299Y33559D02*
X63189Y30669D01*
X57437Y70669D02*
X60299Y67807D01*
Y33559D02*
Y67807D01*
X60177Y124500D02*
X60216Y124539D01*
X60177Y73409D02*
Y124500D01*
X57437Y70669D02*
X60177Y73409D01*
X43683Y70669D02*
X57437D01*
X86843Y203505D02*
Y205976D01*
X77874Y92400D02*
Y206146D01*
X75693Y91496D02*
Y208130D01*
Y91496D02*
X82185Y85004D01*
X75693Y208130D02*
X77913Y210350D01*
X77874Y206146D02*
X79898Y208169D01*
X84650D01*
X77913Y210350D02*
X88260D01*
X90431Y208179D01*
X84650Y208169D02*
X86843Y205976D01*
Y203505D02*
X87069Y203279D01*
X88386Y120398D02*
X133411D01*
X133683Y120669D01*
X83707Y125077D02*
X88386Y120398D01*
X83707Y125077D02*
Y203279D01*
X129348Y85004D02*
X133683Y80669D01*
X82185Y85004D02*
X129348D01*
X129184Y87185D02*
X132668Y90669D01*
X83088Y87185D02*
X129184D01*
X77874Y92400D02*
X83088Y87185D01*
X132668Y90669D02*
X133683D01*
X90431Y203279D02*
Y208179D01*
D19*
X43683Y30669D02*
D03*
Y70669D02*
D03*
Y60669D02*
D03*
Y50669D02*
D03*
Y90669D02*
D03*
Y100669D02*
D03*
Y111169D02*
D03*
Y170669D02*
D03*
Y160669D02*
D03*
Y150669D02*
D03*
Y140669D02*
D03*
Y130669D02*
D03*
Y120669D02*
D03*
X133683Y30669D02*
D03*
Y70669D02*
D03*
Y60669D02*
D03*
Y50669D02*
D03*
Y80669D02*
D03*
Y90669D02*
D03*
Y100669D02*
D03*
Y170669D02*
D03*
Y160669D02*
D03*
Y150669D02*
D03*
Y141169D02*
D03*
Y130669D02*
D03*
Y120669D02*
D03*
D20*
X43683Y40669D02*
D03*
Y80169D02*
D03*
X133683Y40669D02*
D03*
Y110169D02*
D03*
D21*
X165488Y233756D02*
D03*
Y194386D02*
D03*
X155646Y174701D02*
D03*
X165488Y155016D02*
D03*
X155646Y135331D02*
D03*
X165488Y115646D02*
D03*
X155646Y95961D02*
D03*
X165488Y76276D02*
D03*
X155646Y56591D02*
D03*
X165488Y36906D02*
D03*
X135961Y214071D02*
D03*
X145803Y194386D02*
D03*
Y155016D02*
D03*
Y115646D02*
D03*
Y76276D02*
D03*
X135961Y17221D02*
D03*
X126118Y233756D02*
D03*
X116276Y214071D02*
D03*
X126118Y194386D02*
D03*
X116276Y174701D02*
D03*
X126118Y155016D02*
D03*
X116276Y135331D02*
D03*
X126118Y115646D02*
D03*
X116276Y95961D02*
D03*
X126118Y76276D02*
D03*
X116276Y56591D02*
D03*
X126118Y36906D02*
D03*
X116276Y17221D02*
D03*
X106433Y233756D02*
D03*
X96591Y214071D02*
D03*
X106433Y194386D02*
D03*
X96591Y174701D02*
D03*
X106433Y155016D02*
D03*
X96591Y135331D02*
D03*
X106433Y115646D02*
D03*
X96591Y95961D02*
D03*
X106433Y76276D02*
D03*
X96591Y56591D02*
D03*
X106433Y36906D02*
D03*
X96591Y17221D02*
D03*
X76906Y214071D02*
D03*
X86748Y194386D02*
D03*
Y155016D02*
D03*
Y115646D02*
D03*
Y76276D02*
D03*
X76906Y56591D02*
D03*
X86748Y36906D02*
D03*
X76906Y17221D02*
D03*
X67063Y233756D02*
D03*
X57221Y214071D02*
D03*
X67063Y194386D02*
D03*
X57221Y174701D02*
D03*
X67063Y155016D02*
D03*
X57221Y135331D02*
D03*
X67063Y115646D02*
D03*
X57221Y95961D02*
D03*
X67063Y76276D02*
D03*
X57221Y56591D02*
D03*
X67063Y36906D02*
D03*
X57221Y17221D02*
D03*
X47378Y233756D02*
D03*
X37535Y214071D02*
D03*
X47378Y194386D02*
D03*
X37535Y174701D02*
D03*
X47378Y155016D02*
D03*
X37535Y135331D02*
D03*
X47378Y115646D02*
D03*
X37535Y95961D02*
D03*
Y56591D02*
D03*
Y17221D02*
D03*
X27693Y194386D02*
D03*
X17850Y174701D02*
D03*
X27693Y155016D02*
D03*
X17850Y135331D02*
D03*
X27693Y115646D02*
D03*
X17850Y95961D02*
D03*
X27693Y76276D02*
D03*
X17850Y56591D02*
D03*
X60138Y125077D02*
D03*
X83707D02*
D03*
X93793Y203279D02*
D03*
X90431D02*
D03*
X83707D02*
D03*
X87069D02*
D03*
M02*
