G04*
G04 #@! TF.GenerationSoftware,Altium Limited,Altium Designer,19.0.10 (269)*
G04*
G04 Layer_Physical_Order=1*
G04 Layer_Color=255*
%FSLAX25Y25*%
%MOIN*%
G70*
G01*
G75*
%ADD10R,0.02835X0.02835*%
%ADD11R,0.02835X0.02835*%
%ADD12R,0.07087X0.03150*%
%ADD18C,0.01181*%
%ADD19C,0.06900*%
%ADD20R,0.06900X0.06900*%
%ADD21C,0.02362*%
G36*
X99430Y299212D02*
X99506Y298828D01*
X99724Y298503D01*
X100049Y298285D01*
X100433Y298209D01*
Y298203D01*
X101191Y298103D01*
X101897Y297811D01*
X102504Y297345D01*
X102969Y296739D01*
X103261Y296033D01*
X103361Y295275D01*
X103367D01*
X103443Y294891D01*
X103661Y294566D01*
X103986Y294348D01*
X104370Y294272D01*
Y270295D01*
X104370Y270295D01*
X103986Y270218D01*
X103661Y270001D01*
X103443Y269675D01*
X103367Y269291D01*
X103361D01*
X103261Y268534D01*
X102969Y267827D01*
X102503Y267221D01*
X101897Y266756D01*
X101191Y266463D01*
X100433Y266364D01*
Y266358D01*
X100049Y266282D01*
X99898Y266181D01*
X99549Y266103D01*
X99200Y266181D01*
X99049Y266282D01*
X98665Y266358D01*
Y266381D01*
X97381Y266212D01*
X96184Y265716D01*
X95156Y264927D01*
X94367Y263899D01*
X93871Y262702D01*
X93702Y261417D01*
X93725D01*
X93801Y261033D01*
X94019Y260708D01*
X94344Y260490D01*
X94728Y260414D01*
Y256594D01*
X94344Y256518D01*
X94018Y256300D01*
X93801Y255975D01*
X93725Y255591D01*
X93701D01*
X93871Y254306D01*
X94366Y253109D01*
X95155Y252081D01*
X96183Y251292D01*
X97380Y250796D01*
X98665Y250627D01*
Y250627D01*
X98686Y250648D01*
X99888Y250628D01*
X111429Y250061D01*
X122945Y249117D01*
X134424Y247797D01*
X145853Y246101D01*
X153130Y244777D01*
X153130Y244777D01*
X153130Y244777D01*
X153624Y244697D01*
X156582Y243845D01*
X159614Y242589D01*
X162486Y241002D01*
X165162Y239103D01*
X167609Y236916D01*
X169796Y234469D01*
X171695Y231793D01*
X173282Y228921D01*
X174538Y225889D01*
X175447Y222735D01*
X175996Y219500D01*
X176156Y216650D01*
X176156Y216650D01*
X176156D01*
X176162Y216645D01*
Y35136D01*
X176156Y35131D01*
X176156Y35131D01*
X176156Y35131D01*
X175996Y32280D01*
X175447Y29045D01*
X174538Y25892D01*
X173282Y22860D01*
X171695Y19988D01*
X169796Y17311D01*
X167609Y14864D01*
X165162Y12678D01*
X162486Y10779D01*
X159614Y9191D01*
X156582Y7936D01*
X153624Y7083D01*
X153130Y7004D01*
X153130Y7004D01*
X153130Y7004D01*
X145890Y5686D01*
X134502Y3997D01*
X123065Y2681D01*
X111592Y1740D01*
X100093Y1175D01*
X88583Y987D01*
X77072Y1175D01*
X65574Y1740D01*
X54100Y2681D01*
X42663Y3997D01*
X31275Y5686D01*
X24035Y7004D01*
X24035Y7004D01*
X24035Y7004D01*
X23541Y7083D01*
X20583Y7936D01*
X17552Y9191D01*
X14680Y10779D01*
X12003Y12678D01*
X9556Y14864D01*
X7369Y17311D01*
X5470Y19988D01*
X3883Y22860D01*
X2627Y25892D01*
X1719Y29045D01*
X1169Y32280D01*
X1009Y35131D01*
X1009Y35131D01*
X1009D01*
X1003Y35136D01*
Y216645D01*
X1009Y216650D01*
X1009Y216650D01*
X1009Y216650D01*
X1169Y219500D01*
X1719Y222735D01*
X2627Y225889D01*
X3883Y228921D01*
X5470Y231793D01*
X7369Y234469D01*
X9556Y236916D01*
X12003Y239103D01*
X14680Y241002D01*
X17552Y242589D01*
X20583Y243845D01*
X23541Y244697D01*
X24035Y244777D01*
X24035Y244777D01*
X24035Y244777D01*
X31312Y246101D01*
X42742Y247797D01*
X54220Y249117D01*
X65737Y250061D01*
X77277Y250628D01*
X78479Y250648D01*
X78500Y250627D01*
Y250627D01*
X79785Y250796D01*
X80982Y251292D01*
X82010Y252081D01*
X82799Y253109D01*
X83295Y254306D01*
X83464Y255591D01*
X83441D01*
X83364Y255975D01*
X83147Y256300D01*
X82821Y256518D01*
X82437Y256594D01*
Y260414D01*
X82821Y260490D01*
X83147Y260708D01*
X83364Y261033D01*
X83441Y261417D01*
X83464D01*
X83295Y262702D01*
X82799Y263899D01*
X82010Y264927D01*
X80982Y265716D01*
X79785Y266212D01*
X78500Y266381D01*
Y266358D01*
X78116Y266282D01*
X77965Y266181D01*
X77616Y266103D01*
X77267Y266181D01*
X77116Y266282D01*
X76732Y266358D01*
Y266364D01*
X75975Y266463D01*
X75268Y266756D01*
X74662Y267221D01*
X74197Y267827D01*
X73904Y268534D01*
X73804Y269291D01*
X73799D01*
X73722Y269675D01*
X73505Y270001D01*
X73179Y270218D01*
X72795Y270295D01*
X72795Y270295D01*
Y294272D01*
X73179Y294348D01*
X73505Y294566D01*
X73722Y294891D01*
X73798Y295275D01*
X73804D01*
X73904Y296033D01*
X74196Y296739D01*
X74662Y297345D01*
X75268Y297811D01*
X75974Y298103D01*
X76732Y298203D01*
Y298209D01*
X77116Y298285D01*
X77442Y298503D01*
X77659Y298828D01*
X77736Y299212D01*
X77736Y299213D01*
X99430D01*
X99430Y299212D01*
D02*
G37*
%LPC*%
G36*
X82913Y293721D02*
X78780D01*
Y291555D01*
X82913D01*
Y293721D01*
D02*
G37*
G36*
X77598D02*
X73465D01*
Y291555D01*
X77598D01*
Y293721D01*
D02*
G37*
G36*
X103307Y293327D02*
X94646D01*
Y288827D01*
X94646Y288465D01*
X94646Y288102D01*
Y283827D01*
X94646Y283465D01*
X94646Y283102D01*
Y278827D01*
X94646Y278465D01*
X94646Y278102D01*
Y273602D01*
X103307D01*
Y278102D01*
X103307Y278465D01*
X103307Y278827D01*
Y283102D01*
X103307Y283465D01*
X103307Y283827D01*
Y288102D01*
X103307Y288465D01*
X103307Y288827D01*
Y293327D01*
D02*
G37*
G36*
X82913Y290374D02*
X73465D01*
Y288209D01*
X73858D01*
Y283602D01*
X73858D01*
Y283327D01*
X73858D01*
Y278602D01*
X73858D01*
Y278327D01*
X73858D01*
Y273602D01*
X82520D01*
Y274249D01*
X83020Y274387D01*
X83993Y273414D01*
Y237732D01*
X83181D01*
Y238126D01*
X81173D01*
Y235528D01*
X80583D01*
Y234937D01*
X77984D01*
Y232929D01*
Y231366D01*
X80583D01*
Y230776D01*
X81173D01*
Y228177D01*
X83181D01*
Y228571D01*
X83993D01*
Y206110D01*
X83304Y205421D01*
X83139Y205174D01*
X82939Y205134D01*
X82288Y204699D01*
X81852Y204048D01*
X81700Y203279D01*
X81852Y202512D01*
X82288Y201860D01*
X82939Y201425D01*
X83707Y201273D01*
X84475Y201425D01*
X85072Y201824D01*
X85254Y201878D01*
X85522D01*
X85703Y201824D01*
X86301Y201425D01*
X87069Y201273D01*
X87837Y201425D01*
X88434Y201824D01*
X88616Y201878D01*
X88884D01*
X89065Y201824D01*
X89663Y201425D01*
X90431Y201273D01*
X91199Y201425D01*
X91850Y201860D01*
X92285Y202512D01*
X92438Y203279D01*
X92285Y204048D01*
X91850Y204699D01*
X91667Y204822D01*
X91641Y204852D01*
X91538Y204933D01*
X91466Y204997D01*
X91409Y205054D01*
X91367Y205103D01*
X91338Y205141D01*
X91326Y205162D01*
Y280799D01*
X91219Y281337D01*
X90915Y281793D01*
X85749Y286958D01*
X85294Y287263D01*
X84756Y287369D01*
X82520D01*
Y288209D01*
X82913D01*
Y290374D01*
D02*
G37*
G36*
X79992Y238126D02*
X77984D01*
Y236118D01*
X79992D01*
Y238126D01*
D02*
G37*
G36*
X79992Y230185D02*
X77984D01*
Y228177D01*
X79992D01*
Y230185D01*
D02*
G37*
G36*
X153543Y236166D02*
X151535Y236008D01*
X149577Y235538D01*
X147716Y234767D01*
X145999Y233715D01*
X144468Y232407D01*
X143160Y230875D01*
X142107Y229158D01*
X141337Y227297D01*
X140866Y225339D01*
X140708Y223331D01*
X140866Y221323D01*
X141337Y219365D01*
X142107Y217504D01*
X143160Y215787D01*
X144468Y214256D01*
X145999Y212948D01*
X147716Y211895D01*
X149577Y211125D01*
X151535Y210654D01*
X153543Y210496D01*
X155551Y210654D01*
X157510Y211125D01*
X159370Y211895D01*
X161087Y212948D01*
X162619Y214256D01*
X163927Y215787D01*
X164979Y217504D01*
X165750Y219365D01*
X166220Y221323D01*
X166378Y223331D01*
X166220Y225339D01*
X165750Y227297D01*
X164979Y229158D01*
X163927Y230875D01*
X162619Y232407D01*
X161087Y233715D01*
X159370Y234767D01*
X157510Y235538D01*
X155551Y236008D01*
X153543Y236166D01*
D02*
G37*
G36*
X23622Y236166D02*
X21614Y236008D01*
X19656Y235538D01*
X17795Y234767D01*
X16078Y233715D01*
X14546Y232407D01*
X13239Y230875D01*
X12186Y229158D01*
X11415Y227297D01*
X10945Y225339D01*
X10787Y223331D01*
X10945Y221323D01*
X11415Y219365D01*
X12186Y217504D01*
X13239Y215787D01*
X14546Y214256D01*
X16078Y212948D01*
X17795Y211895D01*
X19656Y211125D01*
X21614Y210654D01*
X23622Y210496D01*
X25630Y210654D01*
X27588Y211125D01*
X29449Y211895D01*
X31166Y212948D01*
X32698Y214256D01*
X34006Y215787D01*
X35058Y217504D01*
X35829Y219365D01*
X36299Y221323D01*
X36457Y223331D01*
X36299Y225339D01*
X35829Y227297D01*
X35058Y229158D01*
X34006Y230875D01*
X32698Y232407D01*
X31166Y233715D01*
X29449Y234767D01*
X27588Y235538D01*
X25630Y236008D01*
X23622Y236166D01*
D02*
G37*
G36*
X147638Y190879D02*
X146480Y190765D01*
X145367Y190428D01*
X144341Y189879D01*
X143442Y189141D01*
X142704Y188242D01*
X142155Y187216D01*
X141818Y186103D01*
X141704Y184945D01*
X141818Y183788D01*
X142155Y182675D01*
X142704Y181649D01*
X143442Y180749D01*
X144341Y180011D01*
X145367Y179463D01*
X146480Y179125D01*
X147638Y179011D01*
X148795Y179125D01*
X149909Y179463D01*
X150935Y180011D01*
X151834Y180749D01*
X152572Y181649D01*
X153120Y182675D01*
X153458Y183788D01*
X153572Y184945D01*
X153458Y186103D01*
X153120Y187216D01*
X152572Y188242D01*
X151834Y189141D01*
X150935Y189879D01*
X149909Y190428D01*
X148795Y190765D01*
X147638Y190879D01*
D02*
G37*
G36*
X133683Y174943D02*
X132577Y174798D01*
X131546Y174371D01*
X130660Y173691D01*
X129981Y172806D01*
X129554Y171775D01*
X129409Y170669D01*
X129554Y169563D01*
X129981Y168532D01*
X130660Y167647D01*
X131546Y166968D01*
X132577Y166541D01*
X133683Y166395D01*
X134789Y166541D01*
X135820Y166968D01*
X136705Y167647D01*
X137384Y168532D01*
X137811Y169563D01*
X137957Y170669D01*
X137811Y171775D01*
X137384Y172806D01*
X136705Y173691D01*
X135820Y174371D01*
X134789Y174798D01*
X133683Y174943D01*
D02*
G37*
G36*
X43683D02*
X42577Y174798D01*
X41546Y174371D01*
X40661Y173691D01*
X39981Y172806D01*
X39554Y171775D01*
X39409Y170669D01*
X39554Y169563D01*
X39981Y168532D01*
X40661Y167647D01*
X41546Y166968D01*
X42577Y166541D01*
X43683Y166395D01*
X44789Y166541D01*
X45820Y166968D01*
X46705Y167647D01*
X47384Y168532D01*
X47811Y169563D01*
X47957Y170669D01*
X47811Y171775D01*
X47384Y172806D01*
X46705Y173691D01*
X45820Y174371D01*
X44789Y174798D01*
X43683Y174943D01*
D02*
G37*
G36*
X133683Y164943D02*
X132577Y164798D01*
X131546Y164371D01*
X130660Y163691D01*
X129981Y162806D01*
X129554Y161776D01*
X129409Y160669D01*
X129554Y159563D01*
X129981Y158532D01*
X130660Y157647D01*
X131546Y156968D01*
X132577Y156541D01*
X133683Y156395D01*
X134789Y156541D01*
X135820Y156968D01*
X136705Y157647D01*
X137384Y158532D01*
X137811Y159563D01*
X137957Y160669D01*
X137811Y161776D01*
X137384Y162806D01*
X136705Y163691D01*
X135820Y164371D01*
X134789Y164798D01*
X133683Y164943D01*
D02*
G37*
G36*
X43683D02*
X42577Y164798D01*
X41546Y164371D01*
X40661Y163691D01*
X39981Y162806D01*
X39554Y161776D01*
X39409Y160669D01*
X39554Y159563D01*
X39981Y158532D01*
X40661Y157647D01*
X41546Y156968D01*
X42577Y156541D01*
X43683Y156395D01*
X44789Y156541D01*
X45820Y156968D01*
X46705Y157647D01*
X47384Y158532D01*
X47811Y159563D01*
X47957Y160669D01*
X47811Y161776D01*
X47384Y162806D01*
X46705Y163691D01*
X45820Y164371D01*
X44789Y164798D01*
X43683Y164943D01*
D02*
G37*
G36*
X133683Y154943D02*
X132577Y154798D01*
X131546Y154371D01*
X130660Y153691D01*
X129981Y152806D01*
X129554Y151776D01*
X129409Y150669D01*
X129554Y149563D01*
X129981Y148532D01*
X130660Y147647D01*
X131546Y146968D01*
X132577Y146541D01*
X133683Y146395D01*
X134789Y146541D01*
X135820Y146968D01*
X136705Y147647D01*
X137384Y148532D01*
X137811Y149563D01*
X137957Y150669D01*
X137811Y151776D01*
X137384Y152806D01*
X136705Y153691D01*
X135820Y154371D01*
X134789Y154798D01*
X133683Y154943D01*
D02*
G37*
G36*
X43683D02*
X42577Y154798D01*
X41546Y154371D01*
X40661Y153691D01*
X39981Y152806D01*
X39554Y151776D01*
X39409Y150669D01*
X39554Y149563D01*
X39981Y148532D01*
X40661Y147647D01*
X41546Y146968D01*
X42577Y146541D01*
X43683Y146395D01*
X44789Y146541D01*
X45820Y146968D01*
X46705Y147647D01*
X47384Y148532D01*
X47811Y149563D01*
X47957Y150669D01*
X47811Y151776D01*
X47384Y152806D01*
X46705Y153691D01*
X45820Y154371D01*
X44789Y154798D01*
X43683Y154943D01*
D02*
G37*
G36*
X133683Y145443D02*
X132577Y145298D01*
X131546Y144871D01*
X130660Y144191D01*
X129981Y143306D01*
X129554Y142276D01*
X129409Y141169D01*
X129554Y140063D01*
X129981Y139032D01*
X130660Y138147D01*
X131546Y137468D01*
X132577Y137041D01*
X133683Y136895D01*
X134789Y137041D01*
X135820Y137468D01*
X136705Y138147D01*
X137384Y139032D01*
X137811Y140063D01*
X137957Y141169D01*
X137811Y142276D01*
X137384Y143306D01*
X136705Y144191D01*
X135820Y144871D01*
X134789Y145298D01*
X133683Y145443D01*
D02*
G37*
G36*
X43683Y144943D02*
X42577Y144798D01*
X41546Y144371D01*
X40661Y143691D01*
X39981Y142806D01*
X39554Y141776D01*
X39409Y140669D01*
X39554Y139563D01*
X39981Y138532D01*
X40661Y137647D01*
X41546Y136968D01*
X42577Y136541D01*
X43683Y136395D01*
X44789Y136541D01*
X45820Y136968D01*
X46705Y137647D01*
X47384Y138532D01*
X47811Y139563D01*
X47957Y140669D01*
X47811Y141776D01*
X47384Y142806D01*
X46705Y143691D01*
X45820Y144371D01*
X44789Y144798D01*
X43683Y144943D01*
D02*
G37*
G36*
X83707Y127084D02*
X82939Y126931D01*
X82606Y126709D01*
X82534Y126677D01*
X82458Y126623D01*
X82402Y126588D01*
X82348Y126559D01*
X82296Y126535D01*
X82244Y126515D01*
X82192Y126499D01*
X82140Y126487D01*
X82111Y126482D01*
X61734D01*
X61704Y126487D01*
X61653Y126499D01*
X61601Y126515D01*
X61549Y126535D01*
X61496Y126559D01*
X61442Y126588D01*
X61386Y126623D01*
X61311Y126677D01*
X61238Y126709D01*
X60906Y126931D01*
X60138Y127084D01*
X59370Y126931D01*
X58719Y126496D01*
X58284Y125845D01*
X58131Y125077D01*
X58284Y124309D01*
X58719Y123658D01*
X59370Y123222D01*
X60138Y123070D01*
X60906Y123222D01*
X61238Y123445D01*
X61311Y123477D01*
X61386Y123530D01*
X61442Y123565D01*
X61496Y123594D01*
X61549Y123619D01*
X61601Y123639D01*
X61652Y123655D01*
X61704Y123667D01*
X61734Y123672D01*
X82111D01*
X82140Y123667D01*
X82192Y123655D01*
X82244Y123639D01*
X82296Y123619D01*
X82348Y123594D01*
X82402Y123565D01*
X82458Y123530D01*
X82534Y123477D01*
X82606Y123445D01*
X82939Y123222D01*
X83707Y123070D01*
X84475Y123222D01*
X85126Y123658D01*
X85561Y124309D01*
X85714Y125077D01*
X85561Y125845D01*
X85126Y126496D01*
X84475Y126931D01*
X83707Y127084D01*
D02*
G37*
G36*
X133683Y134943D02*
X132577Y134798D01*
X131546Y134371D01*
X130660Y133691D01*
X129981Y132806D01*
X129554Y131775D01*
X129409Y130669D01*
X129554Y129563D01*
X129981Y128532D01*
X130660Y127647D01*
X131546Y126968D01*
X132577Y126541D01*
X133683Y126395D01*
X134789Y126541D01*
X135820Y126968D01*
X136705Y127647D01*
X137384Y128532D01*
X137811Y129563D01*
X137957Y130669D01*
X137811Y131775D01*
X137384Y132806D01*
X136705Y133691D01*
X135820Y134371D01*
X134789Y134798D01*
X133683Y134943D01*
D02*
G37*
G36*
X43683D02*
X42577Y134798D01*
X41546Y134371D01*
X40661Y133691D01*
X39981Y132806D01*
X39554Y131775D01*
X39409Y130669D01*
X39554Y129563D01*
X39981Y128532D01*
X40661Y127647D01*
X41546Y126968D01*
X42577Y126541D01*
X43683Y126395D01*
X44789Y126541D01*
X45820Y126968D01*
X46705Y127647D01*
X47384Y128532D01*
X47811Y129563D01*
X47957Y130669D01*
X47811Y131775D01*
X47384Y132806D01*
X46705Y133691D01*
X45820Y134371D01*
X44789Y134798D01*
X43683Y134943D01*
D02*
G37*
G36*
Y124943D02*
X42577Y124798D01*
X41546Y124371D01*
X40661Y123691D01*
X39981Y122806D01*
X39554Y121775D01*
X39409Y120669D01*
X39554Y119563D01*
X39981Y118532D01*
X40661Y117647D01*
X41546Y116968D01*
X42577Y116541D01*
X43683Y116395D01*
X44789Y116541D01*
X45820Y116968D01*
X46705Y117647D01*
X47384Y118532D01*
X47811Y119563D01*
X47957Y120669D01*
X47811Y121775D01*
X47384Y122806D01*
X46705Y123691D01*
X45820Y124371D01*
X44789Y124798D01*
X43683Y124943D01*
D02*
G37*
G36*
X138314Y114800D02*
X134273D01*
Y110760D01*
X138314D01*
Y114800D01*
D02*
G37*
G36*
X133092D02*
X129052D01*
Y110760D01*
X133092D01*
Y114800D01*
D02*
G37*
G36*
X43683Y115443D02*
X42577Y115298D01*
X41546Y114871D01*
X40661Y114191D01*
X39981Y113306D01*
X39554Y112276D01*
X39409Y111169D01*
X39554Y110063D01*
X39981Y109032D01*
X40661Y108147D01*
X41546Y107468D01*
X42577Y107041D01*
X43683Y106895D01*
X44789Y107041D01*
X45820Y107468D01*
X46705Y108147D01*
X47384Y109032D01*
X47811Y110063D01*
X47957Y111169D01*
X47811Y112276D01*
X47384Y113306D01*
X46705Y114191D01*
X45820Y114871D01*
X44789Y115298D01*
X43683Y115443D01*
D02*
G37*
G36*
X138314Y109579D02*
X134273D01*
Y105538D01*
X138314D01*
Y109579D01*
D02*
G37*
G36*
X133092D02*
X129052D01*
Y105538D01*
X133092D01*
Y109579D01*
D02*
G37*
G36*
X133683Y104943D02*
X132577Y104798D01*
X131546Y104371D01*
X130660Y103691D01*
X129981Y102806D01*
X129554Y101776D01*
X129409Y100669D01*
X129554Y99563D01*
X129981Y98532D01*
X130660Y97647D01*
X131546Y96968D01*
X132577Y96541D01*
X133683Y96395D01*
X134789Y96541D01*
X135820Y96968D01*
X136705Y97647D01*
X137384Y98532D01*
X137811Y99563D01*
X137957Y100669D01*
X137811Y101776D01*
X137384Y102806D01*
X136705Y103691D01*
X135820Y104371D01*
X134789Y104798D01*
X133683Y104943D01*
D02*
G37*
G36*
X43683D02*
X42577Y104798D01*
X41546Y104371D01*
X40661Y103691D01*
X39981Y102806D01*
X39554Y101776D01*
X39409Y100669D01*
X39554Y99563D01*
X39981Y98532D01*
X40661Y97647D01*
X41546Y96968D01*
X42577Y96541D01*
X43683Y96395D01*
X44789Y96541D01*
X45820Y96968D01*
X46705Y97647D01*
X47384Y98532D01*
X47811Y99563D01*
X47957Y100669D01*
X47811Y101776D01*
X47384Y102806D01*
X46705Y103691D01*
X45820Y104371D01*
X44789Y104798D01*
X43683Y104943D01*
D02*
G37*
G36*
X133683Y94943D02*
X132577Y94798D01*
X131546Y94371D01*
X130660Y93691D01*
X129981Y92806D01*
X129554Y91776D01*
X129409Y90669D01*
X129554Y89563D01*
X129981Y88532D01*
X130660Y87647D01*
X131546Y86968D01*
X132577Y86541D01*
X133683Y86395D01*
X134789Y86541D01*
X135820Y86968D01*
X136705Y87647D01*
X137384Y88532D01*
X137811Y89563D01*
X137957Y90669D01*
X137811Y91776D01*
X137384Y92806D01*
X136705Y93691D01*
X135820Y94371D01*
X134789Y94798D01*
X133683Y94943D01*
D02*
G37*
G36*
X43683D02*
X42577Y94798D01*
X41546Y94371D01*
X40661Y93691D01*
X39981Y92806D01*
X39554Y91776D01*
X39409Y90669D01*
X39554Y89563D01*
X39981Y88532D01*
X40661Y87647D01*
X41546Y86968D01*
X42577Y86541D01*
X43683Y86395D01*
X44789Y86541D01*
X45820Y86968D01*
X46705Y87647D01*
X47384Y88532D01*
X47811Y89563D01*
X47957Y90669D01*
X47811Y91776D01*
X47384Y92806D01*
X46705Y93691D01*
X45820Y94371D01*
X44789Y94798D01*
X43683Y94943D01*
D02*
G37*
G36*
X133683Y124943D02*
X132577Y124798D01*
X131546Y124371D01*
X130660Y123691D01*
X129981Y122806D01*
X129554Y121775D01*
X129409Y120669D01*
X129554Y119563D01*
X129981Y118532D01*
X130660Y117647D01*
X131546Y116968D01*
X132577Y116541D01*
X133683Y116395D01*
X134789Y116541D01*
X135820Y116968D01*
X136163Y117232D01*
X136223Y117259D01*
X138134Y118633D01*
X138777Y119044D01*
X139006Y119173D01*
X139171Y119254D01*
X139199Y119264D01*
X144308D01*
X147418Y116154D01*
Y86583D01*
X146618D01*
Y81960D01*
X139237D01*
X136832Y83608D01*
X136303Y84019D01*
X136232Y84055D01*
X135820Y84371D01*
X134789Y84798D01*
X133683Y84943D01*
X132577Y84798D01*
X131546Y84371D01*
X130660Y83691D01*
X129981Y82806D01*
X129554Y81775D01*
X129409Y80669D01*
X129554Y79563D01*
X129981Y78532D01*
X130660Y77647D01*
X131546Y76968D01*
X132577Y76541D01*
X133683Y76395D01*
X134789Y76541D01*
X135820Y76968D01*
X136105Y77187D01*
X136152Y77207D01*
X138083Y78536D01*
X138732Y78933D01*
X138965Y79059D01*
X139133Y79138D01*
X139168Y79150D01*
X146618D01*
Y78236D01*
X151028D01*
Y82173D01*
Y86583D01*
X150228D01*
Y116736D01*
X150121Y117274D01*
X149816Y117730D01*
X145883Y121663D01*
X145427Y121967D01*
X144890Y122074D01*
X139207D01*
X136768Y123674D01*
X136234Y124072D01*
X136168Y124103D01*
X135820Y124371D01*
X134789Y124798D01*
X133683Y124943D01*
D02*
G37*
G36*
X48314Y84800D02*
X44273D01*
Y80760D01*
X48314D01*
Y84800D01*
D02*
G37*
G36*
X43092D02*
X39052D01*
Y80760D01*
X43092D01*
Y84800D01*
D02*
G37*
G36*
X48314Y79579D02*
X44273D01*
Y75538D01*
X48314D01*
Y79579D01*
D02*
G37*
G36*
X43092D02*
X39052D01*
Y75538D01*
X43092D01*
Y79579D01*
D02*
G37*
G36*
X133683Y74943D02*
X132577Y74798D01*
X131546Y74371D01*
X130660Y73691D01*
X129981Y72806D01*
X129554Y71776D01*
X129409Y70669D01*
X129554Y69563D01*
X129981Y68532D01*
X130660Y67647D01*
X131546Y66968D01*
X132577Y66541D01*
X133683Y66395D01*
X134789Y66541D01*
X135820Y66968D01*
X136705Y67647D01*
X137384Y68532D01*
X137811Y69563D01*
X137957Y70669D01*
X137811Y71776D01*
X137384Y72806D01*
X136705Y73691D01*
X135820Y74371D01*
X134789Y74798D01*
X133683Y74943D01*
D02*
G37*
G36*
X43683D02*
X42577Y74798D01*
X41546Y74371D01*
X40661Y73691D01*
X39981Y72806D01*
X39554Y71776D01*
X39409Y70669D01*
X39554Y69563D01*
X39981Y68532D01*
X40661Y67647D01*
X41546Y66968D01*
X42577Y66541D01*
X43683Y66395D01*
X44789Y66541D01*
X45820Y66968D01*
X46705Y67647D01*
X47384Y68532D01*
X47811Y69563D01*
X47957Y70669D01*
X47811Y71776D01*
X47384Y72806D01*
X46705Y73691D01*
X45820Y74371D01*
X44789Y74798D01*
X43683Y74943D01*
D02*
G37*
G36*
X29528Y72769D02*
X28370Y72655D01*
X27257Y72317D01*
X26231Y71769D01*
X25332Y71031D01*
X24593Y70132D01*
X24045Y69106D01*
X23708Y67993D01*
X23594Y66835D01*
X23708Y65677D01*
X24045Y64564D01*
X24593Y63538D01*
X25332Y62639D01*
X26231Y61901D01*
X27257Y61353D01*
X28370Y61015D01*
X29528Y60901D01*
X30685Y61015D01*
X31798Y61353D01*
X32824Y61901D01*
X33724Y62639D01*
X34462Y63538D01*
X35010Y64564D01*
X35348Y65677D01*
X35462Y66835D01*
X35348Y67993D01*
X35010Y69106D01*
X34462Y70132D01*
X33724Y71031D01*
X32824Y71769D01*
X31798Y72317D01*
X30685Y72655D01*
X29528Y72769D01*
D02*
G37*
G36*
X133683Y64943D02*
X132577Y64798D01*
X131546Y64371D01*
X130660Y63691D01*
X129981Y62806D01*
X129554Y61775D01*
X129409Y60669D01*
X129554Y59563D01*
X129981Y58532D01*
X130660Y57647D01*
X131546Y56968D01*
X132577Y56541D01*
X133683Y56395D01*
X134789Y56541D01*
X135820Y56968D01*
X136705Y57647D01*
X137384Y58532D01*
X137811Y59563D01*
X137957Y60669D01*
X137811Y61775D01*
X137384Y62806D01*
X136705Y63691D01*
X135820Y64371D01*
X134789Y64798D01*
X133683Y64943D01*
D02*
G37*
G36*
X43683D02*
X42577Y64798D01*
X41546Y64371D01*
X40661Y63691D01*
X39981Y62806D01*
X39554Y61775D01*
X39409Y60669D01*
X39554Y59563D01*
X39981Y58532D01*
X40661Y57647D01*
X41546Y56968D01*
X42577Y56541D01*
X43683Y56395D01*
X44789Y56541D01*
X45820Y56968D01*
X46705Y57647D01*
X47384Y58532D01*
X47811Y59563D01*
X47957Y60669D01*
X47811Y61775D01*
X47384Y62806D01*
X46705Y63691D01*
X45820Y64371D01*
X44789Y64798D01*
X43683Y64943D01*
D02*
G37*
G36*
X133683Y54943D02*
X132577Y54798D01*
X131546Y54371D01*
X130660Y53691D01*
X129981Y52806D01*
X129554Y51775D01*
X129409Y50669D01*
X129554Y49563D01*
X129981Y48532D01*
X130660Y47647D01*
X131546Y46968D01*
X132577Y46541D01*
X133683Y46395D01*
X134789Y46541D01*
X135820Y46968D01*
X136705Y47647D01*
X137384Y48532D01*
X137811Y49563D01*
X137957Y50669D01*
X137811Y51775D01*
X137384Y52806D01*
X136705Y53691D01*
X135820Y54371D01*
X134789Y54798D01*
X133683Y54943D01*
D02*
G37*
G36*
X43683D02*
X42577Y54798D01*
X41546Y54371D01*
X40661Y53691D01*
X39981Y52806D01*
X39554Y51775D01*
X39409Y50669D01*
X39554Y49563D01*
X39981Y48532D01*
X40661Y47647D01*
X41546Y46968D01*
X42577Y46541D01*
X43683Y46395D01*
X44789Y46541D01*
X45820Y46968D01*
X46705Y47647D01*
X47384Y48532D01*
X47811Y49563D01*
X47957Y50669D01*
X47811Y51775D01*
X47384Y52806D01*
X46705Y53691D01*
X45820Y54371D01*
X44789Y54798D01*
X43683Y54943D01*
D02*
G37*
G36*
X138314Y45300D02*
X134273D01*
Y41260D01*
X138314D01*
Y45300D01*
D02*
G37*
G36*
X48314D02*
X44273D01*
Y41260D01*
X48314D01*
Y45300D01*
D02*
G37*
G36*
X133092D02*
X129052D01*
Y41260D01*
X133092D01*
Y45300D01*
D02*
G37*
G36*
X43092D02*
X39052D01*
Y41260D01*
X43092D01*
Y45300D01*
D02*
G37*
G36*
X138314Y40079D02*
X134273D01*
Y36038D01*
X138314D01*
Y40079D01*
D02*
G37*
G36*
X133092D02*
X129052D01*
Y36038D01*
X133092D01*
Y40079D01*
D02*
G37*
G36*
X48314D02*
X44273D01*
Y36038D01*
X48314D01*
Y40079D01*
D02*
G37*
G36*
X43092D02*
X39052D01*
Y36038D01*
X43092D01*
Y40079D01*
D02*
G37*
G36*
X133683Y34943D02*
X132577Y34798D01*
X131546Y34371D01*
X130660Y33691D01*
X129981Y32806D01*
X129554Y31776D01*
X129409Y30669D01*
X129554Y29563D01*
X129981Y28532D01*
X130660Y27647D01*
X131546Y26968D01*
X132577Y26541D01*
X133683Y26395D01*
X134789Y26541D01*
X135820Y26968D01*
X136705Y27647D01*
X137384Y28532D01*
X137811Y29563D01*
X137957Y30669D01*
X137811Y31776D01*
X137384Y32806D01*
X136705Y33691D01*
X135820Y34371D01*
X134789Y34798D01*
X133683Y34943D01*
D02*
G37*
G36*
X43683D02*
X42577Y34798D01*
X41546Y34371D01*
X40661Y33691D01*
X39981Y32806D01*
X39554Y31776D01*
X39409Y30669D01*
X39554Y29563D01*
X39981Y28532D01*
X40661Y27647D01*
X41546Y26968D01*
X42577Y26541D01*
X43683Y26395D01*
X44789Y26541D01*
X45820Y26968D01*
X46705Y27647D01*
X47384Y28532D01*
X47811Y29563D01*
X47957Y30669D01*
X47811Y31776D01*
X47384Y32806D01*
X46705Y33691D01*
X45820Y34371D01*
X44789Y34798D01*
X43683Y34943D01*
D02*
G37*
G36*
X153543Y41284D02*
X151535Y41126D01*
X149577Y40656D01*
X147716Y39885D01*
X145999Y38833D01*
X144468Y37525D01*
X143160Y35993D01*
X142107Y34276D01*
X141337Y32416D01*
X140866Y30457D01*
X140708Y28449D01*
X140866Y26441D01*
X141337Y24483D01*
X142107Y22623D01*
X143160Y20905D01*
X144468Y19374D01*
X145999Y18066D01*
X147716Y17013D01*
X149577Y16243D01*
X151535Y15773D01*
X153543Y15615D01*
X155551Y15773D01*
X157510Y16243D01*
X159370Y17013D01*
X161087Y18066D01*
X162619Y19374D01*
X163927Y20905D01*
X164979Y22623D01*
X165750Y24483D01*
X166220Y26441D01*
X166378Y28449D01*
X166220Y30457D01*
X165750Y32416D01*
X164979Y34276D01*
X163927Y35993D01*
X162619Y37525D01*
X161087Y38833D01*
X159370Y39885D01*
X157510Y40656D01*
X155551Y41126D01*
X153543Y41284D01*
D02*
G37*
G36*
X23622D02*
X21614Y41126D01*
X19656Y40656D01*
X17795Y39885D01*
X16078Y38833D01*
X14546Y37525D01*
X13239Y35993D01*
X12186Y34276D01*
X11415Y32416D01*
X10945Y30457D01*
X10787Y28449D01*
X10945Y26441D01*
X11415Y24483D01*
X12186Y22623D01*
X13239Y20905D01*
X14546Y19374D01*
X16078Y18066D01*
X17795Y17013D01*
X19656Y16243D01*
X21614Y15773D01*
X23622Y15615D01*
X25630Y15773D01*
X27588Y16243D01*
X29449Y17013D01*
X31166Y18066D01*
X32698Y19374D01*
X34006Y20905D01*
X35058Y22623D01*
X35829Y24483D01*
X36299Y26441D01*
X36457Y28449D01*
X36299Y30457D01*
X35829Y32416D01*
X35058Y34276D01*
X34006Y35993D01*
X32698Y37525D01*
X31166Y38833D01*
X29449Y39885D01*
X27588Y40656D01*
X25630Y41126D01*
X23622Y41284D01*
D02*
G37*
%LPD*%
G36*
X90518Y205073D02*
X90537Y204979D01*
X90569Y204885D01*
X90613Y204790D01*
X90669Y204696D01*
X90739Y204602D01*
X90821Y204507D01*
X90915Y204413D01*
X91022Y204318D01*
X91142Y204223D01*
X89328Y203701D01*
X89331Y205054D01*
X90512Y205167D01*
X90518Y205073D01*
D02*
G37*
G36*
X88250Y205011D02*
X88191Y203647D01*
X86406Y204257D01*
X86532Y204347D01*
X86645Y204437D01*
X86744Y204528D01*
X86830Y204619D01*
X86903Y204710D01*
X86963Y204801D01*
X87009Y204893D01*
X87042Y204985D01*
X87062Y205077D01*
X87069Y205169D01*
X88250Y205011D01*
D02*
G37*
G36*
X82998Y124132D02*
X82902Y124200D01*
X82806Y124260D01*
X82708Y124313D01*
X82608Y124359D01*
X82506Y124398D01*
X82403Y124430D01*
X82299Y124454D01*
X82192Y124472D01*
X82085Y124483D01*
X81975Y124486D01*
Y125667D01*
X82085Y125671D01*
X82192Y125681D01*
X82299Y125699D01*
X82403Y125724D01*
X82506Y125756D01*
X82608Y125795D01*
X82708Y125841D01*
X82806Y125894D01*
X82902Y125954D01*
X82998Y126021D01*
Y124132D01*
D02*
G37*
G36*
X60942Y125954D02*
X61039Y125894D01*
X61137Y125841D01*
X61237Y125795D01*
X61338Y125756D01*
X61441Y125724D01*
X61546Y125699D01*
X61652Y125681D01*
X61760Y125671D01*
X61869Y125667D01*
Y124486D01*
X61760Y124483D01*
X61652Y124472D01*
X61546Y124454D01*
X61441Y124430D01*
X61338Y124398D01*
X61237Y124359D01*
X61137Y124313D01*
X61039Y124260D01*
X60942Y124200D01*
X60847Y124132D01*
Y126021D01*
X60942Y125954D01*
D02*
G37*
G36*
X136308Y123016D02*
X138853Y121347D01*
X139026Y121282D01*
X139152Y121260D01*
Y120079D01*
X139026Y120057D01*
X138853Y119992D01*
X138632Y119884D01*
X138363Y119732D01*
X137684Y119298D01*
X135754Y117911D01*
Y123428D01*
X136308Y123016D01*
D02*
G37*
G36*
X136359Y82959D02*
X138874Y81235D01*
X139046Y81168D01*
X139170Y81146D01*
X139130Y79965D01*
X139002Y79944D01*
X138827Y79881D01*
X138603Y79776D01*
X138332Y79629D01*
X137645Y79210D01*
X135697Y77868D01*
X135811Y83385D01*
X136359Y82959D01*
D02*
G37*
D10*
X84520Y230776D02*
D03*
X80583D02*
D03*
X84520Y235528D02*
D03*
X80583D02*
D03*
D11*
X148823Y80441D02*
D03*
Y84378D02*
D03*
D12*
X98976Y290965D02*
D03*
Y285965D02*
D03*
Y280965D02*
D03*
Y275965D02*
D03*
X78189D02*
D03*
Y280965D02*
D03*
Y285965D02*
D03*
Y290965D02*
D03*
D18*
X133683Y120669D02*
X144890D01*
X148823Y116736D01*
Y84378D02*
Y116736D01*
X85398Y205528D02*
Y273996D01*
X60138Y125077D02*
X83707D01*
X148709Y80555D02*
X148823Y80441D01*
X133797Y80555D02*
X148709D01*
X133683Y80669D02*
X133797Y80555D01*
X84297Y204428D02*
X85398Y205528D01*
X92102D02*
X93203Y204428D01*
Y204190D02*
Y204428D01*
Y204190D02*
X93793Y203599D01*
Y203279D02*
Y203599D01*
X92102Y205528D02*
Y284020D01*
X85158Y290965D02*
X92102Y284020D01*
X78189Y290965D02*
X85158D01*
X78189Y285965D02*
X84756D01*
X89921Y203789D02*
Y280799D01*
X84756Y285965D02*
X89921Y280799D01*
X83504Y275890D02*
X85398Y273996D01*
X78264Y275890D02*
X83504D01*
X78189Y275965D02*
X78264Y275890D01*
X87740Y213941D02*
Y276965D01*
X78189Y280965D02*
X83740D01*
X87740Y276965D01*
X87660Y203870D02*
Y213860D01*
X87740Y213941D01*
X87069Y203279D02*
X87660Y203870D01*
X89921Y203789D02*
X90431Y203279D01*
D19*
X43683Y30669D02*
D03*
Y70669D02*
D03*
Y60669D02*
D03*
Y50669D02*
D03*
Y90669D02*
D03*
Y100669D02*
D03*
Y111169D02*
D03*
Y170669D02*
D03*
Y160669D02*
D03*
Y150669D02*
D03*
Y140669D02*
D03*
Y130669D02*
D03*
Y120669D02*
D03*
X133683Y30669D02*
D03*
Y70669D02*
D03*
Y60669D02*
D03*
Y50669D02*
D03*
Y80669D02*
D03*
Y90669D02*
D03*
Y100669D02*
D03*
Y170669D02*
D03*
Y160669D02*
D03*
Y150669D02*
D03*
Y141169D02*
D03*
Y130669D02*
D03*
Y120669D02*
D03*
D20*
X43683Y40669D02*
D03*
Y80169D02*
D03*
X133683Y40669D02*
D03*
Y110169D02*
D03*
D21*
X165488Y233756D02*
D03*
Y194386D02*
D03*
X155646Y174701D02*
D03*
X165488Y155016D02*
D03*
X155646Y135331D02*
D03*
X165488Y115646D02*
D03*
X155646Y95961D02*
D03*
X165488Y76276D02*
D03*
X155646Y56591D02*
D03*
X165488Y36906D02*
D03*
X135961Y214071D02*
D03*
X145803Y194386D02*
D03*
Y155016D02*
D03*
Y115646D02*
D03*
Y76276D02*
D03*
X135961Y17221D02*
D03*
X126118Y233756D02*
D03*
X116276Y214071D02*
D03*
X126118Y194386D02*
D03*
X116276Y174701D02*
D03*
X126118Y155016D02*
D03*
X116276Y135331D02*
D03*
X126118Y115646D02*
D03*
X116276Y95961D02*
D03*
X126118Y76276D02*
D03*
X116276Y56591D02*
D03*
X126118Y36906D02*
D03*
X116276Y17221D02*
D03*
X106433Y233756D02*
D03*
X96591Y214071D02*
D03*
X106433Y194386D02*
D03*
X96591Y174701D02*
D03*
X106433Y155016D02*
D03*
X96591Y135331D02*
D03*
X106433Y115646D02*
D03*
X96591Y95961D02*
D03*
X106433Y76276D02*
D03*
X96591Y56591D02*
D03*
X106433Y36906D02*
D03*
X96591Y17221D02*
D03*
X76906Y214071D02*
D03*
X86748Y194386D02*
D03*
Y155016D02*
D03*
Y115646D02*
D03*
Y76276D02*
D03*
X76906Y56591D02*
D03*
X86748Y36906D02*
D03*
X76906Y17221D02*
D03*
X67063Y233756D02*
D03*
X57221Y214071D02*
D03*
X67063Y194386D02*
D03*
X57221Y174701D02*
D03*
X67063Y155016D02*
D03*
X57221Y135331D02*
D03*
X67063Y115646D02*
D03*
X57221Y95961D02*
D03*
X67063Y76276D02*
D03*
X57221Y56591D02*
D03*
X67063Y36906D02*
D03*
X57221Y17221D02*
D03*
X47378Y233756D02*
D03*
X37535Y214071D02*
D03*
X47378Y194386D02*
D03*
X37535Y174701D02*
D03*
X47378Y155016D02*
D03*
X37535Y135331D02*
D03*
X47378Y115646D02*
D03*
X37535Y95961D02*
D03*
Y56591D02*
D03*
Y17221D02*
D03*
X27693Y194386D02*
D03*
X17850Y174701D02*
D03*
X27693Y155016D02*
D03*
X17850Y135331D02*
D03*
X27693Y115646D02*
D03*
X17850Y95961D02*
D03*
X27693Y76276D02*
D03*
X17850Y56591D02*
D03*
X60138Y125077D02*
D03*
X83707D02*
D03*
X93793Y203279D02*
D03*
X90431D02*
D03*
X83707D02*
D03*
X87069D02*
D03*
M02*
