G04*
G04 #@! TF.GenerationSoftware,Altium Limited,Altium Designer,19.0.10 (269)*
G04*
G04 Layer_Color=16711935*
%FSLAX25Y25*%
%MOIN*%
G70*
G01*
G75*
%ADD22C,0.00394*%
D22*
X104370Y295275D02*
G03*
X100433Y299212I-3937J0D01*
G01*
X100433Y265354D02*
G03*
X104370Y269291I0J3937D01*
G01*
X72795Y269291D02*
G03*
X76732Y265354I3937J0D01*
G01*
X78500Y251654D02*
G03*
X82437Y255591I0J3937D01*
G01*
X82437Y261417D02*
G03*
X78500Y265354I-3937J0D01*
G01*
X98665Y265354D02*
G03*
X94728Y261417I0J-3937D01*
G01*
X94728Y255591D02*
G03*
X98665Y251654I3937J0D01*
G01*
X153319Y245790D02*
G03*
X98665Y251654I-64984J-348073D01*
G01*
X76732Y299212D02*
G03*
X72795Y295275I0J-3937D01*
G01*
X78500Y251654D02*
G03*
X23846Y245790I10330J-353936D01*
G01*
X35433Y28449D02*
G03*
X35433Y28449I-11811J0D01*
G01*
X0Y35116D02*
G03*
X23846Y5990I30249J441D01*
G01*
X153319Y5990D02*
G03*
X177165Y35116I-6403J29567D01*
G01*
Y216665D02*
G03*
X153319Y245790I-30249J-441D01*
G01*
X23846Y245790D02*
G03*
X0Y216665I6403J-29567D01*
G01*
X165354Y28449D02*
G03*
X165354Y28449I-11811J0D01*
G01*
X35433Y223331D02*
G03*
X35433Y223331I-11811J0D01*
G01*
X165354Y223331D02*
G03*
X165354Y223331I-11811J0D01*
G01*
X152559Y184945D02*
G03*
X152559Y184945I-4921J0D01*
G01*
X34449Y66835D02*
G03*
X34449Y66835I-4921J0D01*
G01*
X23846Y5990D02*
G03*
X153319Y5990I64737J346800D01*
G01*
X104370Y269291D02*
Y295275D01*
X98665Y265354D02*
X100433D01*
X76732Y265354D02*
X78500D01*
X82437Y255591D02*
Y261417D01*
X94728Y255591D02*
Y261417D01*
X76732Y299213D02*
X100433D01*
X72795Y269291D02*
Y295275D01*
X177165Y35116D02*
Y216665D01*
X0Y35116D02*
Y216665D01*
M02*
